<svg width="86" height="82" viewBox="0 0 86 82" fill="none" xmlns="http://www.w3.org/2000/svg">
<path opacity="0.4" d="M85.5617 29.0613V64.6397C85.8208 66.8606 85.5739 69.1113 84.8396 71.2232C84.1053 73.3351 82.9025 75.2534 81.3215 76.8345C79.7404 78.4155 77.8221 79.6183 75.7102 80.3526C73.5983 81.0869 71.3476 81.3338 69.1267 81.0747H16.5348C14.3139 81.3338 12.0632 81.0869 9.95132 80.3526C7.83941 79.6183 5.92107 78.4155 4.34003 76.8345C2.75899 75.2534 1.55624 73.3351 0.82192 71.2232C0.0875947 69.1113 -0.159271 66.8606 0.0998186 64.6397V20.8131C-0.159271 18.5922 0.0875947 16.3415 0.82192 14.2296C1.55624 12.1177 2.75899 10.1994 4.34003 8.61835C5.92107 7.03731 7.83941 5.83457 9.95132 5.10024C12.0632 4.36592 14.3139 4.11905 16.5348 4.37814H55.1022C55.2961 4.38322 55.4865 4.43114 55.6597 4.51848C55.833 4.60582 55.9847 4.73041 56.1041 4.88331C56.2235 5.03622 56.3076 5.21364 56.3503 5.40287C56.393 5.5921 56.3934 5.78844 56.3513 5.97781C55.3172 11.0986 56.3572 16.4205 59.2429 20.7754C62.1286 25.1303 66.6243 28.1623 71.7432 29.2059C75.7946 30.0159 79.9982 29.533 83.7604 27.8254C83.961 27.7455 84.1782 27.7162 84.3928 27.7401C84.6074 27.7641 84.8128 27.8405 84.9908 27.9627C85.1689 28.0848 85.3141 28.249 85.4137 28.4406C85.5132 28.6322 85.5641 28.8454 85.5617 29.0613Z" fill="#E1E4EC"/>
<path d="M78.602 52.2013L59.0904 32.6897C58.2641 31.8665 57.1452 31.4043 55.9788 31.4043C54.8123 31.4043 53.6934 31.8665 52.8671 32.6897L31.2167 54.3401C30.8071 54.7416 30.2564 54.9665 29.6828 54.9665C29.1092 54.9665 28.5585 54.7416 28.1489 54.3401L24.0292 50.2204C23.2028 49.3972 22.0839 48.9349 20.9175 48.9349C19.751 48.9349 18.6321 49.3972 17.8058 50.2204L7.0595 60.9667C6.81286 61.213 6.67414 61.5472 6.67383 61.8958V64.6393C6.67383 71.5639 9.61021 74.5003 16.5348 74.5003H69.1267C76.0513 74.5003 78.9877 71.5639 78.9877 64.6393V53.1305C78.9874 52.7819 78.8487 52.4477 78.602 52.2013Z" fill="#E1E4EC"/>
<path d="M25.3001 35.0563C24.5807 35.0588 23.8678 34.9197 23.2021 34.6468C22.5365 34.3739 21.9311 33.9725 21.4205 33.4656C20.3895 32.442 19.8073 31.0506 19.802 29.5977C19.7968 28.1447 20.369 26.7492 21.3927 25.7181C22.4163 24.687 23.8077 24.1048 25.2606 24.0996H25.3001C26.753 24.0996 28.1465 24.6768 29.1738 25.7042C30.2012 26.7316 30.7784 28.125 30.7784 29.5779C30.7784 31.0309 30.2012 32.4243 29.1738 33.4517C28.1465 34.4791 26.753 35.0563 25.3001 35.0563Z" fill="#E1E4EC"/>
<path d="M84.5977 7.53348L78.0237 0.959485C77.4068 0.345008 76.5716 0 75.7009 0C74.8302 0 73.9949 0.345008 73.3781 0.959485L66.8041 7.53348C66.2234 8.15658 65.9074 8.98072 65.9224 9.83228C65.9374 10.6838 66.2824 11.4963 66.8846 12.0985C67.4868 12.7008 68.2993 13.0458 69.1509 13.0608C70.0024 13.0758 70.8266 12.7597 71.4497 12.1791L72.4139 11.2193V20.8129C72.4139 21.6847 72.7602 22.5208 73.3766 23.1372C73.993 23.7536 74.8291 24.0999 75.7009 24.0999C76.5726 24.0999 77.4087 23.7536 78.0251 23.1372C78.6416 22.5208 78.9879 21.6847 78.9879 20.8129V11.2193L79.952 12.1791C80.5751 12.7597 81.3993 13.0758 82.2508 13.0608C83.1024 13.0458 83.9149 12.7008 84.5171 12.0985C85.1194 11.4963 85.4643 10.6838 85.4793 9.83228C85.4944 8.98072 85.1783 8.15658 84.5977 7.53348Z" fill="#E1E4EC"/>
</svg>
