<svg width="800" height="800" viewBox="0 0 800 800" fill="none" xmlns="http://www.w3.org/2000/svg">
<g clip-path="url(#clip0_706_4)">
<path d="M209.184 307.718C154.103 286.848 153.196 244.75 115.187 208.673C103.57 197.647 105.806 178.633 119.696 170.656C159.218 147.953 193.026 143.441 232.654 155.733C273.215 168.314 303.393 201.491 296.912 243.461C290.432 285.431 248.895 322.764 209.184 307.718Z" fill="#4AD197"/>
<path d="M259.325 167.969C251.243 162.848 242.246 158.709 232.657 155.734C193.029 143.443 159.22 147.955 119.698 170.657C105.809 178.636 103.573 197.648 115.19 208.675C142.81 234.89 150.844 264.285 174.304 286.404C170.14 240.928 208.434 185.149 259.325 167.969Z" fill="#35C38D"/>
<path d="M159.624 199.39C158.579 197.963 158.001 196.179 158.103 194.276C158.338 189.896 162.079 186.534 166.459 186.77C188.025 187.926 219.458 198.235 241.067 218.661C244.254 221.67 244.396 226.7 241.382 229.888C238.369 233.076 233.343 233.217 230.155 230.204C211.576 212.641 183.673 203.599 165.61 202.63C163.133 202.499 160.983 201.246 159.624 199.39Z" fill="#357964"/>
<path d="M406.734 214.893C426.089 159.262 394.391 131.543 391.128 79.24C390.13 63.2545 374.116 52.7637 359.083 58.2927C316.305 74.0235 291.143 97.0507 275.13 135.327C258.74 174.503 264.807 218.939 301.149 240.912C337.49 262.885 392.779 255.001 406.734 214.893Z" fill="#4AD197"/>
<path d="M267.395 163.643C268.656 154.158 271.259 144.603 275.133 135.341C291.146 97.065 316.308 74.0378 359.086 58.307C374.119 52.779 390.133 63.2688 391.131 79.2542C393.502 117.261 410.884 142.29 412.784 174.478C380.588 142.093 313.236 135.65 267.395 163.643Z" fill="#35C38D"/>
<path d="M355.495 107.384C355.072 105.666 354.075 104.078 352.55 102.934C349.041 100.302 344.061 101.013 341.43 104.523C328.473 121.801 316.201 152.521 317.992 182.202C318.253 186.577 322.018 189.915 326.397 189.651C330.776 189.387 334.111 185.623 333.846 181.245C332.306 155.724 343.285 128.525 354.137 114.053C355.627 112.07 356.045 109.617 355.495 107.384Z" fill="#357964"/>
<g filter="url(#filter0_i_706_4)">
<path d="M261.719 218.563C183.104 264.069 132.31 341.875 122.032 425.502C119.538 445.796 108.597 464.328 91.5151 475.564C59.0104 496.944 42.3695 540.247 56.9353 578.298C71.4925 616.325 112.911 637.395 151.345 631.636C171.514 628.614 191.98 635.085 207.343 648.498C281.755 713.463 392.296 735.294 495.239 695.886C598.146 656.492 665.841 566.478 677.886 468.471C680.38 448.177 691.321 429.645 708.403 418.409C740.908 397.029 757.548 353.726 742.983 315.675C729.032 279.232 698.638 255.403 651.543 263.232C631 266.647 609.846 260.808 594.28 246.976C501.856 164.851 370.44 153.358 261.719 218.563Z" fill="#FFEA8F"/>
</g>
<path d="M276.361 550.489C296.598 542.742 308.056 523.537 301.953 507.593C295.849 491.649 274.496 485.003 254.258 492.75C234.021 500.497 222.563 519.703 228.667 535.647C234.77 551.591 256.124 558.236 276.361 550.489Z" fill="#FF9B9D" fill-opacity="0.66"/>
<path d="M553.977 444.27C574.215 436.523 585.672 417.318 579.569 401.374C573.466 385.43 552.112 378.785 531.875 386.532C511.638 394.278 500.18 413.484 506.283 429.428C512.387 445.372 533.74 452.017 553.977 444.27Z" fill="#FF9B9D" fill-opacity="0.66"/>
<path d="M277.549 502.53C274.791 501.299 272.501 499.015 271.337 495.971L264.938 479.258C262.607 473.17 265.653 466.345 271.741 464.015C277.829 461.684 284.654 464.729 286.983 470.817L293.382 487.531C295.712 493.619 292.666 500.443 286.578 502.774C283.535 503.94 280.306 503.761 277.549 502.53Z" fill="#333942"/>
<path d="M361.776 472.011C360.815 471.582 359.865 471.12 358.928 470.621C353.171 467.562 350.985 460.416 354.044 454.659C357.103 448.902 364.253 446.706 370.005 449.775C375.729 452.817 382.491 453.242 388.535 450.928C394.578 448.614 399.326 443.791 401.559 437.695C403.801 431.575 410.581 428.431 416.703 430.674C422.82 432.91 425.966 439.696 423.723 445.818C419.142 458.322 409.392 468.22 396.975 472.975C385.544 477.349 372.888 476.97 361.776 472.011Z" fill="#333942"/>
<path d="M473.691 426.924C470.933 425.693 468.644 423.41 467.479 420.365C464.372 412.247 464.611 403.406 468.154 395.468C471.696 387.531 478.118 381.448 486.237 378.34C502.996 371.925 521.847 380.339 528.262 397.097C530.593 403.185 527.547 410.01 521.459 412.339C515.371 414.669 508.547 411.623 506.218 405.536C504.456 400.934 499.279 398.623 494.677 400.385C492.449 401.238 490.685 402.908 489.712 405.088C488.739 407.268 488.673 409.696 489.526 411.926C491.856 418.014 488.81 424.838 482.723 427.167C479.677 428.334 476.45 428.155 473.691 426.924Z" fill="#333942"/>
</g>
<defs>
<filter id="filter0_i_706_4" x="51.6223" y="176.509" width="696.673" height="539.048" filterUnits="userSpaceOnUse" color-interpolation-filters="sRGB">
<feFlood flood-opacity="0" result="BackgroundImageFix"/>
<feBlend mode="normal" in="SourceGraphic" in2="BackgroundImageFix" result="shape"/>
<feColorMatrix in="SourceAlpha" type="matrix" values="0 0 0 0 0 0 0 0 0 0 0 0 0 0 0 0 0 0 127 0" result="hardAlpha"/>
<feOffset dx="38" dy="-51"/>
<feComposite in2="hardAlpha" operator="arithmetic" k2="-1" k3="1"/>
<feColorMatrix type="matrix" values="0 0 0 0 0.992338 0 0 0 0 0.902231 0 0 0 0 0.511767 0 0 0 1 0"/>
<feBlend mode="normal" in2="shape" result="effect1_innerShadow_706_4"/>
</filter>
<clipPath id="clip0_706_4">
<rect width="800" height="800" fill="white"/>
</clipPath>
</defs>
</svg>
